<?xml version="1.0" encoding="UTF-8"?>
<svg xmlns="http://www.w3.org/2000/svg"
     width="179" height="380" viewBox="0 0 171.72 364.2" preserveAspectRatio="none">
  <g id="RES">
    <path d="M14.72,117c.53-.08,1.31-.16,1.92-.16,1.4,0,2.46.44,2.46,1.93,0,1.07-.54,1.62-1.37,1.85.43.85,1,1.81,1.58,2.73v.02h-1.14c-.52-.86-1.03-1.78-1.45-2.61-.42,0-.73-.02-1.04-.06v2.67h-.96v-6.37ZM16.59,119.98c.93,0,1.52-.22,1.52-1.15s-.57-1.15-1.48-1.15c-.27,0-.64.02-.95.05v2.21c.32.03.71.04.91.04ZM20.61,116.93h3.78v.85h-2.82v1.87h2.38v.83h-2.38v2.04h2.82v.85h-3.78v-6.44ZM25.5,122.43c.45.09,1.14.19,1.65.19.95,0,1.47-.33,1.47-1.03s-.5-.83-1.47-1.16c-.95-.34-1.76-.71-1.76-1.8s.8-1.8,2.32-1.8c.52,0,1.1.08,1.64.2l-.14.84c-.42-.09-1.05-.19-1.54-.19-.7,0-1.29.22-1.29.87,0,.72.68.86,1.51,1.15.88.31,1.72.7,1.72,1.87s-.85,1.9-2.48,1.9c-.57,0-1.24-.09-1.77-.19l.14-.85Z" fill="#d3d3d3"/>
  </g>
  <g id="CRNCH">
    <path d="M40.75,120.15c0-1.96.68-3.32,2.85-3.32.53,0,1.09.08,1.56.18l-.14.83c-.4-.07-.98-.16-1.43-.16-1.55,0-1.85,1.07-1.85,2.49,0,1.29.25,2.44,1.79,2.44.54,0,1.09-.14,1.59-.34l.29.79c-.61.27-1.25.41-1.91.41-2.06,0-2.75-1.35-2.75-3.32ZM46.62,117c.53-.08,1.31-.16,1.92-.16,1.4,0,2.46.44,2.46,1.93,0,1.07-.54,1.62-1.37,1.85.43.85,1,1.81,1.58,2.73v.02h-1.14c-.52-.86-1.03-1.78-1.45-2.61-.42,0-.73-.02-1.04-.06v2.67h-.96v-6.37ZM48.49,119.98c.93,0,1.52-.22,1.52-1.15s-.57-1.15-1.48-1.15c-.27,0-.64.02-.95.05v2.21c.32.03.71.04.91.04ZM52.51,116.93h1.37l2.76,5.13h.04v-5.13h.95v6.44h-1.37l-2.76-5.13h-.04v5.13h-.95v-6.44ZM59.1,120.15c0-1.96.68-3.32,2.85-3.32.53,0,1.09.08,1.56.18l-.14.83c-.4-.07-.98-.16-1.43-.16-1.55,0-1.85,1.07-1.85,2.49,0,1.29.25,2.44,1.79,2.44.54,0,1.09-.14,1.59-.34l.29.79c-.61.27-1.25.41-1.91.41-2.06,0-2.75-1.35-2.75-3.32ZM64.97,116.93h.96v2.69h2.9v-2.69h.96v6.44h-.96v-2.9h-2.9v2.9h-.96v-6.44Z" fill="#d3d3d3"/>
  </g>
  <g id="DRV">
    <path d="M109.47,117c.57-.09,1.27-.17,1.85-.17,2.12,0,3.11,1.05,3.11,3.33s-.98,3.31-3.18,3.31c-.45,0-1.2-.04-1.78-.12v-6.35ZM111.23,122.61c1.58,0,2.21-.65,2.21-2.43s-.63-2.5-2.15-2.5c-.27,0-.62.03-.86.06v4.83c.29.03.59.04.8.04ZM115.85,117c.53-.08,1.31-.16,1.92-.16,1.4,0,2.46.44,2.46,1.93,0,1.07-.54,1.62-1.37,1.85.43.85,1,1.81,1.58,2.73v.02h-1.14c-.52-.86-1.03-1.78-1.45-2.61-.42,0-.73-.02-1.04-.06v2.67h-.96v-6.37ZM117.72,119.98c.93,0,1.52-.22,1.52-1.15s-.57-1.15-1.48-1.15c-.27,0-.64.02-.95.05v2.21c.32.03.71.04.91.04ZM121.09,116.93h1.01c.46,1.8,1.07,3.89,1.63,5.56h.04c.56-1.67,1.18-3.77,1.63-5.56h.99c-.56,2.2-1.41,4.93-2.01,6.44h-1.29c-.6-1.51-1.45-4.24-2-6.44Z" fill="#d3d3d3"/>
  </g>
  <g id="SPRD">
    <path d="M138.68,122.43c.45.09,1.14.19,1.65.19.95,0,1.47-.33,1.47-1.03s-.5-.83-1.47-1.16c-.95-.34-1.76-.71-1.76-1.8s.8-1.8,2.32-1.8c.52,0,1.1.08,1.64.2l-.14.84c-.42-.09-1.05-.19-1.54-.19-.7,0-1.29.22-1.29.87,0,.72.68.86,1.51,1.15.88.31,1.72.7,1.72,1.87s-.85,1.9-2.48,1.9c-.57,0-1.24-.09-1.77-.19l.14-.85ZM144.09,116.98c.63-.09,1.37-.15,1.9-.15,1.46,0,2.58.46,2.58,2.07s-1.15,2.1-2.59,2.1c-.25,0-.59-.02-.93-.05v2.42h-.96v-6.39ZM145.97,120.17c.99,0,1.61-.24,1.61-1.25s-.6-1.24-1.59-1.24c-.28,0-.64.02-.94.05v2.39c.3.04.69.05.92.05ZM149.84,117c.53-.08,1.31-.16,1.92-.16,1.4,0,2.46.44,2.46,1.93,0,1.07-.54,1.62-1.37,1.85.43.85,1,1.81,1.58,2.73v.02h-1.14c-.52-.86-1.03-1.78-1.45-2.61-.42,0-.73-.02-1.04-.06v2.67h-.96v-6.37ZM151.71,119.98c.93,0,1.52-.22,1.52-1.15s-.57-1.15-1.48-1.15c-.27,0-.64.02-.95.05v2.21c.32.03.71.04.91.04ZM155.73,117c.57-.09,1.27-.17,1.85-.17,2.12,0,3.11,1.05,3.11,3.33s-.98,3.31-3.18,3.31c-.45,0-1.2-.04-1.78-.12v-6.35ZM157.49,122.61c1.58,0,2.21-.65,2.21-2.43s-.63-2.5-2.15-2.5c-.27,0-.62.03-.86.06v4.83c.29.03.59.04.8.04Z" fill="#d3d3d3"/>
  </g>
  <g id="FREQ">
    <path d="M75.14,277.85h3.79v.85h-2.83v1.98h2.4v.83h-2.4v2.78h-.96v-6.44ZM80.27,277.92c.53-.08,1.31-.16,1.92-.16,1.4,0,2.46.44,2.46,1.93,0,1.07-.54,1.62-1.37,1.85.43.85,1,1.81,1.58,2.73v.02h-1.14c-.52-.86-1.03-1.78-1.45-2.61-.42,0-.73-.02-1.04-.06v2.67h-.96v-6.37ZM82.14,280.9c.93,0,1.52-.22,1.52-1.15s-.57-1.15-1.48-1.15c-.27,0-.64.02-.95.05v2.21c.32.03.71.04.91.04ZM86.16,277.85h3.78v.85h-2.82v1.87h2.38v.83h-2.38v2.04h2.82v.85h-3.78v-6.44ZM91.02,281.09c0-2.2.83-3.34,2.77-3.34s2.79,1.14,2.79,3.28c0,1.95-.7,3.11-2.47,3.19v.04c.57.1,1.23.31,1.8.58l-.42.86c-1.27-.76-2.4-1.14-3.2-1.63-.73-.46-1.27-1.21-1.27-2.98ZM95.59,281.07c0-1.69-.5-2.47-1.79-2.47s-1.79.78-1.79,2.47.5,2.47,1.79,2.47,1.79-.78,1.79-2.47Z" fill="#d3d3d3"/>
  </g>
  <g id="IN">
    <path d="M33.97,297.41h.96v6.44h-.96v-6.44ZM36.75,297.41h1.37l2.76,5.13h.04v-5.13h.95v6.44h-1.37l-2.76-5.13h-.04v5.13h-.95v-6.44Z" fill="#d3d3d3"/>
  </g>
  <g id="CLIP">
    <path d="M77.11,300.63c0-1.96.68-3.32,2.85-3.32.53,0,1.09.08,1.56.18l-.14.83c-.4-.07-.98-.16-1.43-.16-1.55,0-1.85,1.07-1.85,2.49,0,1.29.25,2.44,1.79,2.44.54,0,1.09-.14,1.59-.34l.29.79c-.61.27-1.25.41-1.91.41-2.06,0-2.75-1.35-2.75-3.32ZM82.98,297.41h.96v5.59h2.78v.85h-3.74v-6.44ZM87.91,297.41h.96v6.44h-.96v-6.44ZM90.69,297.46c.63-.09,1.37-.15,1.9-.15,1.46,0,2.58.46,2.58,2.07s-1.15,2.1-2.59,2.1c-.25,0-.59-.02-.93-.05v2.42h-.96v-6.39ZM92.57,300.65c.99,0,1.61-.24,1.61-1.25s-.6-1.24-1.59-1.24c-.28,0-.64.02-.94.05v2.39c.3.04.69.05.92.05Z" fill="#d3d3d3"/>
  </g>
  <g id="OUT">
    <path d="M125.59,300.51c0-2.18.83-3.32,2.78-3.32s2.78,1.14,2.78,3.32-.83,3.32-2.78,3.32-2.78-1.14-2.78-3.32ZM130.16,300.51c0-1.69-.5-2.47-1.79-2.47s-1.79.78-1.79,2.47.5,2.47,1.79,2.47,1.79-.78,1.79-2.47ZM132.51,297.29h.96v4.06c0,1.16.4,1.63,1.49,1.63s1.49-.47,1.49-1.63v-4.06h.95v4.19c0,1.59-.79,2.35-2.44,2.35s-2.45-.76-2.45-2.35v-4.19ZM140.39,298.14h-1.89v-.85h4.74v.85h-1.89v5.59h-.96v-5.59Z" fill="#d3d3d3"/>
  </g>
</svg>
