<?xml version="1.0" encoding="UTF-8"?>
<svg xmlns="http://www.w3.org/2000/svg" xmlns:serif="http://www.serif.com/" xmlns:xlink="http://www.w3.org/1999/xlink"
     width="35" height="35" viewBox="0 0 1184 1184"><rect id="SLKnobSmall" x="0" y="0" width="1183.33" height="1183.33" style="fill:none;"/><g><g id="base"><circle cx="591.659" cy="591.672" r="591.664" style="fill:url(#_Linear2);"/><path d="M591.664,1166.43c323.931,-0 586.909,-260.361 591.461,-583.222c0.037,2.838 0.203,5.621 0.203,8.46c0,326.768 -264.895,591.663 -591.664,591.663c-326.769,0 -591.664,-264.895 -591.664,-591.663c0,-2.839 0.166,-5.622 0.203,-8.46c4.553,322.861 267.531,583.222 591.461,583.222" style="fill:#999a9d;fill-rule:nonzero;"/><path d="M591.664,16.902c323.931,0 586.909,260.361 591.461,583.223c0.037,-2.839 0.203,-5.622 0.203,-8.46c0,-326.769 -264.895,-591.664 -591.664,-591.664c-326.769,-0 -591.664,264.895 -591.664,591.664c0,2.838 0.166,5.621 0.203,8.46c4.553,-322.862 267.531,-583.223 591.461,-583.223" style="fill:#a7a7a7;fill-rule:nonzero;"/><path d="M101.367,591.672c0,270.6 219.692,490.292 490.292,490.292c270.599,-0 490.291,-219.692 490.291,-490.292c0,-270.599 -219.692,-490.291 -490.291,-490.291c-270.6,-0 -490.292,219.692 -490.292,490.291Z" style="fill:#3a3a3b;"/><path id="sshadow" d="M1044.09,642.095c-0,273.392 -205.048,495.01 -457.982,495.01c-252.933,-0 -457.981,-221.618 -457.981,-495.01c-0,-273.392 205.048,-495.01 457.981,-495.01c252.934,-0 457.982,221.618 457.982,495.01" style="fill-rule:nonzero;"/><path d="M1035.42,591.667c0,244.913 -198.838,443.752 -443.752,443.752c-244.913,-0 -443.752,-198.839 -443.752,-443.752c0,-244.914 198.839,-443.752 443.752,-443.752c244.914,-0 443.752,198.838 443.752,443.752Z" style="fill:#6f7072;"/><g id="shading"><path d="M646.972,887.873c-58.012,-0 -156.339,-8.046 -207.292,-27.185c-22.863,-8.581 -132.591,-39.244 -183.524,-101.372c-67.437,-82.213 -97.256,-207.992 -108.08,-260.242c-5.721,27.617 -8.829,56.16 -8.829,85.403c0,240.301 202.559,435.101 452.409,435.101c249.87,0 452.429,-194.8 452.429,-435.101c-0,-29.243 -3.128,-57.786 -8.849,-85.403c-27.329,132.014 -100.755,200.645 -221.739,260.242c-61.737,30.416 -92.379,128.557 -166.525,128.557" style="fill-opacity:0.3;fill-rule:nonzero;"/><path d="M556.387,806.312c58.013,0 114.749,-25.621 165.703,-44.759c22.863,-8.602 132.59,-39.265 183.523,-101.372c67.437,-82.234 118.823,-108.863 129.627,-161.113c5.721,27.637 8.829,56.16 8.829,85.423c-0,240.301 -202.539,435.102 -452.409,435.102c-249.85,-0 -452.409,-194.801 -452.409,-435.102c0,-29.263 3.108,-57.786 8.829,-85.423c27.349,132.014 79.208,101.516 200.192,161.113c61.737,30.415 133.969,146.131 208.115,146.131" style="fill-opacity:0.2;fill-rule:nonzero;"/><path d="M556.387,714.557c58.013,-0 60.235,-34.985 114.379,-40.788c95.157,-10.187 105.385,-112.588 156.318,-174.695c67.437,-82.234 197.352,52.25 208.156,-0c5.721,27.617 8.829,56.16 8.829,85.403c-0,240.301 -202.539,435.101 -452.409,435.101c-249.85,0 -452.409,-194.8 -452.409,-435.101c0,-29.243 3.108,-57.786 8.829,-85.403c27.349,132.014 119.625,7.841 240.609,67.437c61.737,30.416 93.552,148.046 167.698,148.046" style="fill-opacity:0.1;fill-rule:nonzero;"/></g><path d="M1023.82,692.815c-45.822,196.245 -222.03,342.604 -432.152,342.604c-210.121,-0 -386.329,-146.359 -432.152,-342.604c49.196,176.543 224.138,307.248 432.152,307.248c208.014,0 382.956,-130.705 432.152,-307.248Z"/><path d="M159.512,490.519c45.823,-196.246 222.031,-342.604 432.152,-342.604c210.122,-0 386.33,146.358 432.152,342.604c-49.196,-176.544 -224.138,-307.249 -432.152,-307.249c-208.014,0 -382.956,130.705 -432.152,307.249Z" style="fill:#fcfcfc;fill-opacity:0.71;"/></g></g><defs><linearGradient id="_Linear2" x1="0" y1="0" x2="1" y2="0" gradientUnits="userSpaceOnUse" gradientTransform="matrix(5.9373e-14,969.634,-969.634,5.9373e-14,665.065,106.817)"><stop offset="0" style="stop-color:#58595b;stop-opacity:1"/><stop offset="1" style="stop-color:#2a2a2a;stop-opacity:1"/></linearGradient></defs></svg>
