<?xml version="1.0" encoding="UTF-8"?>
<svg xmlns="http://www.w3.org/2000/svg" xmlns:serif="http://www.serif.com/" xmlns:xlink="http://www.w3.org/1999/xlink"
     width="60" height="60" viewBox="0 0 2234 2234"><rect id="SLKnobLarge" x="0" y="0" width="2233.33" height="2233.33" style="fill:none;"/><g id="SLKnobLarge1" serif:id="SLKnobLarge"><g id="turn"><path d="M2233.32,1116.67c-0,616.299 -500.357,1116.66 -1116.66,1116.66c-616.3,-0 -1116.66,-500.357 -1116.66,-1116.66c0,-616.3 500.357,-1116.66 1116.66,-1116.66c616.299,0 1116.66,500.357 1116.66,1116.66Z" style="fill:none;"/><path d="M213.963,1320.1c-112.275,-498.211 201.056,-993.85 699.267,-1106.13c498.212,-112.276 993.85,201.055 1106.13,699.267c112.276,498.212 -201.055,993.85 -699.266,1106.13c-498.212,112.276 -993.851,-201.055 -1106.13,-699.267Zm81.622,-18.394c102.124,453.164 552.947,738.164 1006.11,636.04c453.163,-102.124 738.163,-552.947 636.039,-1006.11c-102.124,-453.164 -552.947,-738.164 -1006.11,-636.04c-453.164,102.124 -738.163,552.948 -636.039,1006.11Z" style="fill:#3a3a3b;"/><g><path d="M1192.85,269.799l0,31.612c0,8.724 -7.082,15.806 -15.806,15.806l-120.761,0c-8.724,0 -15.806,-7.082 -15.806,-15.806l-0,-31.612c-0,-8.723 7.082,-15.806 15.806,-15.806l120.761,0c8.724,0 15.806,7.083 15.806,15.806Z" style="fill:#3c3c3c;"/><path d="M1192.86,1931.92l0,31.612c0,8.724 -7.082,15.806 -15.806,15.806l-120.761,0c-8.724,0 -15.806,-7.082 -15.806,-15.806l-0,-31.612c-0,-8.724 7.082,-15.806 15.806,-15.806l120.761,-0c8.724,-0 15.806,7.082 15.806,15.806Z" style="fill:#3c3c3c;"/><path d="M759.213,345.166l15.806,27.377c4.362,7.555 1.77,17.23 -5.785,21.592l-104.583,60.38c-7.555,4.362 -17.229,1.77 -21.591,-5.785l-15.806,-27.377c-4.362,-7.555 -1.77,-17.23 5.785,-21.592l104.583,-60.38c7.554,-4.362 17.229,-1.77 21.591,5.785Z" style="fill:#3c3c3c;"/><path d="M1590.28,1784.6l15.806,27.377c4.361,7.555 1.769,17.23 -5.786,21.592l-104.582,60.381c-7.555,4.361 -17.23,1.769 -21.592,-5.786l-15.806,-27.377c-4.362,-7.555 -1.769,-17.23 5.786,-21.591l104.582,-60.381c7.555,-4.362 17.23,-1.77 21.592,5.785Z" style="fill:#3c3c3c;"/><path d="M421.353,627.256l27.377,15.806c7.555,4.362 10.147,14.037 5.785,21.592l-60.38,104.582c-4.362,7.555 -14.037,10.148 -21.592,5.786l-27.377,-15.806c-7.555,-4.362 -10.147,-14.037 -5.785,-21.592l60.38,-104.582c4.362,-7.555 14.037,-10.148 21.592,-5.786Z" style="fill:#3c3c3c;"/><path d="M1860.8,1458.31l27.377,15.806c7.555,4.362 10.147,14.036 5.786,21.591l-60.381,104.583c-4.362,7.555 -14.037,10.147 -21.592,5.785l-27.377,-15.806c-7.555,-4.362 -10.147,-14.037 -5.785,-21.592l60.381,-104.582c4.361,-7.555 14.036,-10.147 21.591,-5.785Z" style="fill:#3c3c3c;"/><path d="M269.803,1040.48l31.612,0c8.723,0 15.806,7.083 15.806,15.806l-0,120.762c-0,8.723 -7.083,15.806 -15.806,15.806l-31.612,-0c-8.724,-0 -15.806,-7.083 -15.806,-15.806l-0,-120.762c-0,-8.723 7.082,-15.806 15.806,-15.806Z" style="fill:#3c3c3c;"/><path d="M1931.92,1040.48l31.613,0c8.723,0 15.806,7.083 15.806,15.806l-0,120.762c-0,8.724 -7.083,15.806 -15.806,15.806l-31.613,-0c-8.723,-0 -15.806,-7.082 -15.806,-15.806l0,-120.762c0,-8.723 7.083,-15.806 15.806,-15.806Z" style="fill:#3c3c3c;"/><path d="M345.17,1474.12l27.377,-15.806c7.555,-4.362 17.229,-1.77 21.591,5.785l60.381,104.582c4.362,7.555 1.769,17.23 -5.786,21.592l-27.377,15.806c-7.554,4.362 -17.229,1.77 -21.591,-5.785l-60.381,-104.583c-4.362,-7.555 -1.769,-17.229 5.786,-21.591Z" style="fill:#3c3c3c;"/><path d="M1784.61,643.056l27.377,-15.806c7.555,-4.362 17.23,-1.769 21.591,5.786l60.381,104.582c4.362,7.555 1.769,17.23 -5.785,21.592l-27.377,15.806c-7.555,4.362 -17.23,1.769 -21.592,-5.786l-60.381,-104.582c-4.361,-7.555 -1.769,-17.23 5.786,-21.592Z" style="fill:#3c3c3c;"/><path d="M627.26,1811.98l15.806,-27.377c4.362,-7.555 14.036,-10.147 21.591,-5.786l104.583,60.381c7.555,4.362 10.147,14.037 5.785,21.592l-15.806,27.377c-4.362,7.554 -14.037,10.147 -21.591,5.785l-104.583,-60.381c-7.555,-4.361 -10.147,-14.036 -5.785,-21.591Z" style="fill:#3c3c3c;"/><path d="M1458.32,372.54l15.806,-27.377c4.362,-7.555 14.037,-10.148 21.592,-5.786l104.582,60.381c7.555,4.362 10.147,14.037 5.786,21.592l-15.807,27.377c-4.361,7.554 -14.036,10.147 -21.591,5.785l-104.582,-60.381c-7.555,-4.362 -10.148,-14.036 -5.786,-21.591Z" style="fill:#3c3c3c;"/></g><path d="M1057.02,193.389l-0,-193.389l119.28,0l-0,193.389c-39.76,-3.318 -79.52,-3.375 -119.28,0Z" style="fill:#d4d4d4;fill-rule:nonzero;"/><path d="M1124.12,1086.28l-14.889,0c-28.837,0 -52.178,-23.69 -52.178,-52.88l-0,-752.868c40.805,-2.866 80.654,-3.14 119.245,0l0,752.868c0,29.19 -23.376,52.88 -52.178,52.88" style="fill:#fff;fill-rule:nonzero;"/></g></g></svg>
