<?xml version="1.0" encoding="UTF-8"?>
<svg xmlns="http://www.w3.org/2000/svg" xmlns:serif="http://www.serif.com/" xmlns:xlink="http://www.w3.org/1999/xlink"
     width="60" height="60" viewBox="0 0 2234 2234"><rect id="SLKnobLarge" x="0" y="0" width="2233.33" height="2233.33" style="fill:none;"/><g><g id="base"><circle cx="1116.66" cy="1116.68" r="1116.66" style="fill:url(#_Linear2);"/><path d="M1116.67,2201.43c611.359,-0 1107.68,-491.383 1116.27,-1100.72c0.07,5.357 0.383,10.609 0.383,15.966c-0,616.716 -499.94,1116.66 -1116.66,1116.66c-616.716,0 -1116.66,-499.94 -1116.66,-1116.66c0,-5.357 0.314,-10.609 0.383,-15.966c8.592,609.341 504.915,1100.72 1116.27,1100.72" style="fill:#999a9d;fill-rule:nonzero;"/><path d="M1116.67,31.905c611.359,0 1107.68,491.383 1116.27,1100.73c0.07,-5.357 0.383,-10.61 0.383,-15.967c-0,-616.716 -499.94,-1116.66 -1116.66,-1116.66c-616.716,-0 -1116.66,499.94 -1116.66,1116.66c0,5.357 0.314,10.61 0.383,15.967c8.592,-609.342 504.915,-1100.73 1116.27,-1100.73" style="fill:#a7a7a7;fill-rule:nonzero;"/><path d="M191.321,1116.68c0,510.706 414.629,925.335 925.335,925.335c510.706,-0 925.335,-414.629 925.335,-925.335c0,-510.706 -414.629,-925.335 -925.335,-925.335c-510.706,0 -925.335,414.629 -925.335,925.335Z" style="fill:#3a3a3b;"/><path id="sshadow" d="M1970.53,1211.84c0,515.977 -386.991,934.24 -864.355,934.24c-477.365,0 -864.356,-418.263 -864.356,-934.24c0,-515.976 386.991,-934.24 864.356,-934.24c477.364,0 864.355,418.264 864.355,934.24" style="fill-rule:nonzero;"/><path d="M1954.17,1116.67c-0,462.228 -375.272,837.5 -837.5,837.5c-462.229,-0 -837.5,-375.272 -837.5,-837.5c-0,-462.229 375.271,-837.5 837.5,-837.5c462.228,-0 837.5,375.271 837.5,837.5Z" style="fill:#6f7072;"/><g id="shading"><path d="M1221.05,1675.7c-109.487,0 -295.06,-15.186 -391.226,-51.306c-43.15,-16.196 -250.24,-74.066 -346.366,-191.321c-127.276,-155.162 -183.554,-392.547 -203.983,-491.159c-10.797,52.122 -16.662,105.992 -16.662,161.182c0,453.524 382.293,821.174 853.838,821.174c471.583,0 853.876,-367.65 853.876,-821.174c0,-55.19 -5.903,-109.06 -16.701,-161.182c-51.578,249.152 -190.156,378.681 -418.49,491.159c-116.517,57.404 -174.349,242.627 -314.286,242.627" style="fill-opacity:0.3;fill-rule:nonzero;"/><path d="M1050.09,1521.77c109.488,0 216.567,-48.354 312.732,-84.475c43.151,-16.234 250.24,-74.104 346.367,-191.321c127.276,-155.201 224.257,-205.458 244.647,-304.071c10.797,52.161 16.662,105.992 16.662,161.221c0,453.524 -382.254,821.174 -853.838,821.174c-471.544,0 -853.837,-367.65 -853.837,-821.174c-0,-55.229 5.864,-109.06 16.662,-161.221c51.617,249.153 149.491,191.593 377.826,304.071c116.517,57.404 252.842,275.796 392.779,275.796" style="fill-opacity:0.2;fill-rule:nonzero;"/><path d="M1050.09,1348.6c109.488,-0 113.682,-66.027 215.868,-76.979c179.592,-19.226 198.895,-212.489 295.021,-329.705c127.276,-155.201 372.467,98.612 392.857,-0c10.797,52.122 16.662,105.992 16.662,161.182c0,453.524 -382.254,821.174 -853.838,821.174c-471.544,0 -853.837,-367.65 -853.837,-821.174c-0,-55.19 5.864,-109.06 16.662,-161.182c51.617,249.152 225.771,14.798 454.106,127.276c116.517,57.404 176.562,279.408 316.499,279.408" style="fill-opacity:0.2;fill-rule:nonzero;"/><path d="M1104.96,690.805c367.34,-0 444.63,-204.293 520.172,-134.655c109.021,100.477 69.094,80.669 192.408,168.833c166.736,119.236 115.896,315.529 136.325,216.916c10.798,52.161 16.662,106.031 16.662,161.221c0,453.524 -382.293,821.174 -853.876,821.174c-471.545,0 -853.838,-367.65 -853.838,-821.174c0,-55.19 5.865,-109.06 16.662,-161.221c67.541,-251.094 124.246,-160.133 325.044,-316.577c147.511,-114.924 360.504,65.483 500.441,65.483" style="fill-opacity:0.1;fill-rule:nonzero;"/></g><path d="M1932.27,1307.57c-86.482,370.377 -419.041,646.602 -815.607,646.602c-396.566,-0 -729.126,-276.225 -815.608,-646.602c92.849,333.193 423.019,579.875 815.608,579.875c392.588,-0 722.758,-246.682 815.607,-579.875Z"/><path d="M301.059,925.769c86.482,-370.378 419.042,-646.602 815.608,-646.602c396.566,-0 729.125,276.224 815.607,646.602c-92.849,-333.193 -423.019,-579.875 -815.607,-579.875c-392.589,-0 -722.759,246.682 -815.608,579.875Z" style="fill:#fcfcfc;fill-opacity:0.71;"/></g></g><defs><linearGradient id="_Linear2" x1="0" y1="0" x2="1" y2="0" gradientUnits="userSpaceOnUse" gradientTransform="matrix(1.12055e-13,1830.01,-1830.01,1.12055e-13,1255.2,201.602)"><stop offset="0" style="stop-color:#58595b;stop-opacity:1"/><stop offset="1" style="stop-color:#2a2a2a;stop-opacity:1"/></linearGradient></defs></svg>
